<svg width="65" height="65" viewBox="0 0 65 65" fill="none" xmlns="http://www.w3.org/2000/svg">
<rect width="65" height="65" fill="white" fill-opacity="0.01"/>
<path fill-rule="evenodd" clip-rule="evenodd" d="M49.3214 48.0156C48.9762 48.1064 48.6438 48.2534 48.3723 48.5242C48.1022 48.7944 47.9546 49.1262 47.8631 49.4708C43.7785 53.1998 38.3656 55.4955 32.4123 55.4955C26.1382 55.4955 20.2794 53.0131 15.9143 48.5053C11.7444 44.1994 9.44809 38.526 9.44809 32.5312C9.44809 27.8435 10.8661 23.4833 13.2868 19.8458C13.3936 19.6854 13.5089 19.5323 13.6186 19.3755C13.9041 18.9687 14.2005 18.5699 14.5109 18.1832C14.6256 18.0398 14.7409 17.8965 14.8586 17.7556C15.7259 16.7273 16.6785 15.7734 17.7111 14.9104C17.8044 14.833 17.9002 14.7579 17.9947 14.6817C18.4467 14.3158 18.9126 13.9675 19.392 13.6357C19.492 13.5668 19.5896 13.4954 19.6909 13.4277C23.3357 10.9924 27.7093 9.56641 32.4123 9.56641C37.1086 9.56641 41.4755 10.9887 45.1173 13.4174C45.2338 13.4948 45.3466 13.5778 45.4619 13.6577C45.9224 13.9773 46.3706 14.3121 46.8055 14.6634C46.9128 14.75 47.022 14.8342 47.1275 14.9226C47.6514 15.3611 48.1601 15.8173 48.6425 16.2998L48.645 16.3022C49.1061 16.7639 49.5391 17.2506 49.9593 17.7483C50.0825 17.8947 50.2021 18.0435 50.3216 18.1929C50.6272 18.5741 50.9187 18.9669 51.2005 19.367C51.3127 19.528 51.431 19.6848 51.5396 19.8488C53.9591 23.4857 55.3771 27.8447 55.3771 32.5312C55.3771 38.5004 53.0686 43.9273 49.3214 48.0156ZM6.89197 12.719C6.89197 9.50603 9.50542 6.89197 12.7178 6.89197C14.7866 6.89197 16.6688 8.00078 17.7056 9.71645C17.6184 9.77256 17.5403 9.84087 17.4537 9.8982C17.0628 10.1574 16.692 10.4422 16.3156 10.7204C15.954 10.9881 15.5838 11.2437 15.2361 11.5285C14.8878 11.8133 14.5646 12.1262 14.231 12.4287C13.7809 12.8361 13.3369 13.2478 12.9148 13.6845C12.4061 14.2109 11.9066 14.7464 11.4413 15.3123C11.2449 15.5514 11.0729 15.8106 10.8844 16.057C10.5093 16.5456 10.1355 17.0353 9.7933 17.5495C9.76158 17.5983 9.72255 17.6416 9.69022 17.6904C7.99102 16.6505 6.89197 14.7738 6.89197 12.719ZM52.1056 6.89197C55.3186 6.89197 57.9333 9.50603 57.9333 12.719C57.9333 14.7738 56.8342 16.6505 55.1344 17.6904C55.1027 17.6416 55.0643 17.5983 55.0319 17.5501C54.6843 17.0274 54.3049 16.5303 53.9237 16.0339C53.742 15.7972 53.5761 15.5472 53.387 15.3166C52.8546 14.6689 52.2898 14.0498 51.7012 13.454C51.3688 13.1179 51.012 12.8099 50.6632 12.4915C50.3058 12.1658 49.9581 11.831 49.5836 11.5242C49.2439 11.2461 48.881 10.996 48.5273 10.7344C48.1449 10.4508 47.7679 10.1611 47.3703 9.89759C47.2843 9.84026 47.2062 9.77256 47.1196 9.71645C48.1546 8.00078 50.038 6.89197 52.1056 6.89197ZM52.99 50.1899C57.0745 45.4375 59.5605 39.2744 59.5605 32.5312C59.5605 28.5382 58.6725 24.7568 57.1178 21.3388C60.1362 19.5744 62.1166 16.3199 62.1166 12.719C62.1166 7.19875 57.6253 2.70801 52.1056 2.70801C48.4809 2.70801 45.2155 4.70789 43.4583 7.7556C40.0794 6.24303 36.348 5.38306 32.4123 5.38306C28.4772 5.38306 24.7446 6.24303 21.3657 7.7556C19.6097 4.70789 16.3443 2.70801 12.7178 2.70801C7.19814 2.70801 2.70801 7.19875 2.70801 12.719C2.70801 16.3199 4.68838 19.5744 7.70742 21.3388C6.15276 24.7568 5.26413 28.5382 5.26413 32.5312C5.26413 39.0713 7.6019 45.2704 11.8328 50.1917L3.31974 58.7225C2.50369 59.5404 2.50491 60.8645 3.32218 61.6805C3.73082 62.0886 4.26449 62.2916 4.79999 62.2916C5.33671 62.2916 5.8716 62.0873 6.28023 61.6775L14.7775 53.1632C19.686 57.377 25.8552 59.6794 32.4123 59.6794C39.1359 59.6794 45.2832 57.2087 50.0301 53.1461L58.545 61.6775C58.953 62.0873 59.4885 62.2916 60.0252 62.2916C60.5601 62.2916 61.0938 62.0886 61.5024 61.6805C62.3197 60.8645 62.3209 59.5404 61.5055 58.7225L52.99 50.1899Z" fill="#121212"/>
<path fill-rule="evenodd" clip-rule="evenodd" d="M41.3931 30.4392H34.5048V19.5597C34.5048 18.4039 33.5673 17.4677 32.4128 17.4677C31.2576 17.4677 30.3208 18.4039 30.3208 19.5597V32.5312C30.3208 33.6864 31.2576 34.6232 32.4128 34.6232H41.3931C42.5482 34.6232 43.485 33.6864 43.485 32.5312C43.485 31.3754 42.5482 30.4392 41.3931 30.4392Z" fill="#121212"/>
</svg>
