<svg width="65" height="65" viewBox="0 0 65 65" fill="none" xmlns="http://www.w3.org/2000/svg">
<rect width="65" height="65" fill="white" fill-opacity="0.01"/>
<path fill-rule="evenodd" clip-rule="evenodd" d="M58.0963 30.4022H47.654C46.6264 22.9493 40.2311 17.1853 32.4999 17.1853C28.1208 17.1853 24.1747 19.043 21.3811 22V6.90393H58.0963V30.4022ZM21.3811 32.5003C21.3811 26.3693 26.3695 21.3809 32.4999 21.3809C38.6309 21.3809 43.6193 26.3693 43.6193 32.5003C43.6193 38.6307 38.6309 43.6191 32.4999 43.6191C26.3695 43.6191 21.3811 38.6307 21.3811 32.5003ZM58.0963 58.0955H6.90473V34.5984H17.3457C18.374 42.0513 24.7693 47.8153 32.4999 47.8153C40.2311 47.8153 46.6264 42.0513 47.654 34.5984H58.0963V58.0955ZM6.90473 30.4022H17.1849V6.90393H6.90473V30.4022ZM60.1944 2.70831H4.80661C3.64745 2.70831 2.7085 3.64727 2.7085 4.80643V32.5003V60.1936C2.7085 61.3528 3.64745 62.2917 4.80661 62.2917H60.1944C61.3529 62.2917 62.2919 61.3528 62.2919 60.1936V32.5003V4.80643C62.2919 3.64727 61.3529 2.70831 60.1944 2.70831Z" fill="#121212"/>
<path fill-rule="evenodd" clip-rule="evenodd" d="M43.3804 14.625H48.4321C49.5055 14.625 50.375 13.9584 50.375 13.1354C50.375 12.3129 49.5055 11.6458 48.4321 11.6458H43.3804C42.307 11.6458 41.4375 12.3129 41.4375 13.1354C41.4375 13.9584 42.307 14.625 43.3804 14.625Z" fill="#121212"/>
<path fill-rule="evenodd" clip-rule="evenodd" d="M32.4999 28.9722C34.4451 28.9722 36.028 30.5551 36.028 32.5003C36.028 34.4455 34.4451 36.0278 32.4999 36.0278C30.5547 36.0278 28.9724 34.4455 28.9724 32.5003C28.9724 30.5551 30.5547 28.9722 32.4999 28.9722ZM32.4999 39.9479C36.6068 39.9479 39.9481 36.6072 39.9481 32.5003C39.9481 28.3933 36.6068 25.0521 32.4999 25.0521C28.3929 25.0521 25.0522 28.3933 25.0522 32.5003C25.0522 36.6072 28.3929 39.9479 32.4999 39.9479Z" fill="#121212"/>
</svg>
