<svg width="65" height="65" viewBox="0 0 65 65" fill="none" xmlns="http://www.w3.org/2000/svg">
<rect width="65" height="65" fill="white" fill-opacity="0.01"/>
<path fill-rule="evenodd" clip-rule="evenodd" d="M21.251 20.6116C19.6624 20.6116 17.8934 18.3238 17.8934 15.0402C17.8934 11.7578 19.6624 9.47007 21.251 9.47007C22.8384 9.47007 24.6068 11.7578 24.6068 15.0402C24.6068 18.3238 22.8384 20.6116 21.251 20.6116ZM21.251 5.2738C17.0156 5.2738 13.6978 9.56427 13.6978 15.0402C13.6978 19.5711 15.9708 23.2817 19.1529 24.4317V58.3272C19.1529 59.4852 20.0925 60.4248 21.251 60.4248C22.4096 60.4248 23.3492 59.4852 23.3492 58.3272V24.4311C26.53 23.2811 28.8031 19.5705 28.8031 15.0402C28.8031 9.56427 25.4852 5.2738 21.251 5.2738Z" fill="#121212"/>
<path fill-rule="evenodd" clip-rule="evenodd" d="M47.5459 5.27386C46.3873 5.27386 45.4478 6.21344 45.4478 7.372V20.5187H44.1883V7.372C44.1883 6.21344 43.2487 5.27386 42.0908 5.27386C40.9322 5.27386 39.9926 6.21344 39.9926 7.372V20.5187H38.7344V7.372C38.7344 6.21344 37.7948 5.27386 36.6362 5.27386C35.4783 5.27386 34.5381 6.21344 34.5381 7.372V22.6168C34.5381 23.7748 35.4783 24.7149 36.6362 24.7149H39.9926V58.3273C39.9926 59.4852 40.9322 60.4248 42.0908 60.4248C43.2487 60.4248 44.1883 59.4852 44.1883 58.3273V24.7149H47.5459C48.7045 24.7149 49.644 23.7748 49.644 22.6168V7.372C49.644 6.21344 48.7045 5.27386 47.5459 5.27386Z" fill="#121212"/>
</svg>
