<svg width="65" height="65" viewBox="0 0 65 65" fill="none" xmlns="http://www.w3.org/2000/svg">
<rect width="65" height="65" fill="white" fill-opacity="0.01"/>
<path fill-rule="evenodd" clip-rule="evenodd" d="M41.1066 54.4604H23.0645C13.9251 54.4604 6.48924 47.0246 6.48924 37.8852C6.48924 28.7457 13.9251 21.3111 23.0645 21.3111H41.1066C50.246 21.3111 57.6819 28.7457 57.6819 37.8852C57.6819 47.0246 50.246 54.4604 41.1066 54.4604ZM41.1066 17.1155H34.0341V10.2228C34.0341 9.06427 33.0939 8.12469 31.936 8.12469C30.7774 8.12469 29.8379 9.06427 29.8379 10.2228V17.1155H23.0645C11.611 17.1155 2.29297 26.4323 2.29297 37.8852C2.29297 49.338 11.611 58.6567 23.0645 58.6567H41.1066C52.5595 58.6567 61.8781 49.338 61.8781 37.8852C61.8781 26.4323 52.5595 17.1155 41.1066 17.1155Z" fill="#121212"/>
<path fill-rule="evenodd" clip-rule="evenodd" d="M22.5916 35.8813H20.1864V33.4761C20.1864 32.3176 19.2462 31.378 18.0883 31.378C16.9297 31.378 15.9902 32.3176 15.9902 33.4761V35.8813H13.585C12.4264 35.8813 11.4868 36.8209 11.4868 37.9795C11.4868 39.1374 12.4264 40.0776 13.585 40.0776H15.9902V42.4828C15.9902 43.6408 16.9297 44.5809 18.0883 44.5809C19.2462 44.5809 20.1864 43.6408 20.1864 42.4828V40.0776H22.5916C23.7502 40.0776 24.6898 39.1374 24.6898 37.9795C24.6898 36.8209 23.7502 35.8813 22.5916 35.8813Z" fill="#121212"/>
<path fill-rule="evenodd" clip-rule="evenodd" d="M42.3864 31.093C40.5109 31.093 38.9902 32.6136 38.9902 34.4891C38.9902 36.3652 40.5109 37.8859 42.3864 37.8859C44.2619 37.8859 45.7826 36.3652 45.7826 34.4891C45.7826 32.6136 44.2619 31.093 42.3864 31.093Z" fill="#121212"/>
<path fill-rule="evenodd" clip-rule="evenodd" d="M49.1789 37.8856C47.3034 37.8856 45.7827 39.4063 45.7827 41.2818C45.7827 43.1579 47.3034 44.6786 49.1789 44.6786C51.0544 44.6786 52.575 43.1579 52.575 41.2818C52.575 39.4063 51.0544 37.8856 49.1789 37.8856Z" fill="#121212"/>
</svg>
