<svg width="24" height="24" viewBox="0 0 24 24" fill="none" xmlns="http://www.w3.org/2000/svg">
<path fill-rule="evenodd" clip-rule="evenodd" d="M3.16366 10.033C3.05943 10.1278 3 10.2621 3 10.403V20.1818C3 20.1818 3 20.1818 3 20.1818C3 20.1818 3 22 4.8 22C6.6 22 19.2 22 19.2 22C19.2 22 19.2 22 19.2 22C19.2 22 21 22 21 20.1818C21 18.5406 21 11.7145 21 10.401C21 10.2601 20.9406 10.1278 20.8363 10.033L12.3363 2.30576C12.1456 2.13239 11.8544 2.13239 11.6637 2.30576L3.16366 10.033Z" stroke="black" stroke-width="1.5"/>
</svg>
