<svg width="24" height="24" viewBox="0 0 24 24" fill="none" xmlns="http://www.w3.org/2000/svg">
<path d="M9.38626 3.65697L8.67475 3.4198V3.4198L9.38626 3.65697ZM6.0816 5.5649L6.23196 4.83013L6.0816 5.5649ZM3.94859 6.5243L3.29907 6.1493L3.29907 6.1493L3.94859 6.5243ZM3.23221 7.7651L3.88173 8.1401H3.88173L3.23221 7.7651ZM3.46785 10.092L2.9067 10.5896H2.9067L3.46785 10.092ZM3.46785 13.9079L4.029 14.4055H4.029L3.46785 13.9079ZM3.23221 16.2348L3.88173 15.8598L3.23221 16.2348ZM3.94859 17.4756L3.29907 17.8506H3.29907L3.94859 17.4756ZM6.0816 18.435L5.93124 17.7003H5.93124L6.0816 18.435ZM9.38627 20.343L10.0978 20.1058L9.38627 20.343ZM14.6138 20.343L13.9022 20.1058V20.1058L14.6138 20.343ZM17.9183 18.435L18.0687 17.7003H18.0687L17.9183 18.435ZM20.0514 17.4756L20.7009 17.8506V17.8506L20.0514 17.4756ZM20.7677 16.2348L21.4173 16.6098V16.6098L20.7677 16.2348ZM20.5321 13.9079L19.9709 14.4055L20.5321 13.9079ZM20.5321 10.092L19.9709 9.59443V9.59443L20.5321 10.092ZM20.7677 7.76509L20.1182 8.14009V8.14009L20.7677 7.76509ZM20.0514 6.52429L19.4018 6.89929V6.89929L20.0514 6.52429ZM17.9183 5.56489L17.768 4.83012L17.9183 5.56489ZM14.6138 3.65697L15.3253 3.4198V3.4198L14.6138 3.65697ZM15.2965 5.20279L15.6243 4.5282L15.2965 5.20279ZM15.0288 4.9021L14.3173 5.13927L15.0288 4.9021ZM16.6312 5.8283L16.4808 5.09352L16.6312 5.8283ZM16.2364 5.74643L16.6576 5.12588L16.2364 5.74643ZM19.5335 11.4573L18.7853 11.5104L19.5335 11.4573ZM19.66 11.0755L20.2212 11.5731L19.66 11.0755ZM16.2364 18.2535L16.6576 18.874L16.2364 18.2535ZM16.6312 18.1716L16.4808 18.9064L16.6312 18.1716ZM19.66 12.9244L19.0989 13.422L19.66 12.9244ZM19.5335 12.5427L20.2816 12.5958L19.5335 12.5427ZM8.70353 18.7971L9.0313 18.1226L8.70353 18.7971ZM7.36883 18.1716L7.51919 18.9064L7.36883 18.1716ZM7.76358 18.2535L7.34237 18.874L7.76358 18.2535ZM15.0288 19.0978L14.3173 18.8607L15.0288 19.0978ZM15.2965 18.7971L14.9687 18.1226L15.2965 18.7971ZM4.34 12.9243L3.77885 12.4267L4.34 12.9243ZM4.34 11.0756L4.90116 10.578L4.34 11.0756ZM4.46656 11.4573L3.71844 11.4042L4.46656 11.4573ZM7.36884 5.82832L7.5192 5.09354L7.36884 5.82832ZM8.97122 4.9021L9.68273 5.13927L8.97122 4.9021ZM10.0978 3.89414C10.2679 3.38372 10.7456 3.03943 11.2836 3.03943V1.53943C10.0999 1.53943 9.04907 2.29686 8.67475 3.4198L10.0978 3.89414ZM9.68273 5.13927L10.0978 3.89414L8.67475 3.4198L8.25971 4.66493L9.68273 5.13927ZM8.1848 6.367C8.45392 6.18433 8.73672 6.02051 9.0313 5.87738L8.37576 4.5282C8.01592 4.70304 7.6707 4.90305 7.34238 5.1259L8.1848 6.367ZM5.93124 6.29967L7.21848 6.56309L7.5192 5.09354L6.23196 4.83013L5.93124 6.29967ZM4.59811 6.8993C4.86712 6.43334 5.40412 6.19181 5.93124 6.29967L6.23196 4.83013C5.07231 4.59282 3.89091 5.1242 3.29907 6.1493L4.59811 6.8993ZM3.88173 8.1401L4.59811 6.8993L3.29907 6.1493L2.58269 7.3901L3.88173 8.1401ZM4.029 9.59444C3.67203 9.19188 3.61271 8.60606 3.88173 8.1401L2.58269 7.3901C1.99085 8.4152 2.12136 9.70401 2.9067 10.5896L4.029 9.59444ZM4.90116 10.578L4.029 9.59444L2.9067 10.5896L3.77885 11.5732L4.90116 10.578ZM5.19737 12C5.19737 11.8352 5.20321 11.672 5.21468 11.5105L3.71844 11.4042C3.70447 11.6011 3.69737 11.7998 3.69737 12H5.19737ZM5.21468 12.4895C5.20321 12.3279 5.19737 12.1647 5.19737 12H3.69737C3.69737 12.2002 3.70447 12.3988 3.71844 12.5957L5.21468 12.4895ZM4.029 14.4055L4.90116 13.422L3.77885 12.4267L2.9067 13.4103L4.029 14.4055ZM3.88173 15.8598C3.61271 15.3939 3.67203 14.8081 4.029 14.4055L2.9067 13.4103C2.12136 14.2959 1.99085 15.5847 2.58269 16.6098L3.88173 15.8598ZM4.5981 17.1006L3.88173 15.8598L2.58269 16.6098L3.29907 17.8506L4.5981 17.1006ZM5.93124 17.7003C5.40412 17.8081 4.86712 17.5666 4.5981 17.1006L3.29907 17.8506C3.89091 18.8757 5.07231 19.4071 6.23196 19.1698L5.93124 17.7003ZM7.21847 17.4368L5.93124 17.7003L6.23196 19.1698L7.51919 18.9064L7.21847 17.4368ZM9.0313 18.1226C8.73671 17.9794 8.45391 17.8156 8.18479 17.6329L7.34237 18.874C7.67069 19.0969 8.01591 19.2969 8.37576 19.4717L9.0313 18.1226ZM10.0978 20.1058L9.68273 18.8607L8.25971 19.335L8.67475 20.5801L10.0978 20.1058ZM11.2836 20.9605C10.7456 20.9605 10.2679 20.6162 10.0978 20.1058L8.67475 20.5801C9.04907 21.7031 10.0999 22.4605 11.2836 22.4605V20.9605ZM12.7164 20.9605H11.2836V22.4605H12.7164V20.9605ZM13.9022 20.1058C13.7321 20.6162 13.2544 20.9605 12.7164 20.9605V22.4605C13.9001 22.4605 14.951 21.7031 15.3253 20.5801L13.9022 20.1058ZM14.3173 18.8607L13.9022 20.1058L15.3253 20.5801L15.7403 19.335L14.3173 18.8607ZM15.8152 17.6329C15.5461 17.8156 15.2633 17.9794 14.9687 18.1226L15.6243 19.4717C15.9841 19.2969 16.3293 19.0969 16.6576 18.874L15.8152 17.6329ZM18.0687 17.7003L16.7815 17.4369L16.4808 18.9064L17.768 19.1698L18.0687 17.7003ZM19.4018 17.1006C19.1328 17.5666 18.5958 17.8081 18.0687 17.7003L17.768 19.1698C18.9276 19.4071 20.109 18.8757 20.7009 17.8506L19.4018 17.1006ZM20.1182 15.8598L19.4018 17.1006L20.7009 17.8506L21.4173 16.6098L20.1182 15.8598ZM19.9709 14.4055C20.3279 14.8081 20.3872 15.3939 20.1182 15.8598L21.4173 16.6098C22.0091 15.5847 21.8786 14.2959 21.0932 13.4103L19.9709 14.4055ZM19.0989 13.422L19.9709 14.4055L21.0932 13.4103L20.2212 12.4268L19.0989 13.422ZM18.8027 12C18.8027 12.1647 18.7968 12.328 18.7853 12.4895L20.2816 12.5958C20.2956 12.3989 20.3027 12.2002 20.3027 12H18.8027ZM18.7853 11.5104C18.7968 11.672 18.8027 11.8352 18.8027 12H20.3027C20.3027 11.7997 20.2956 11.6011 20.2816 11.4041L18.7853 11.5104ZM19.9709 9.59443L19.0989 10.5779L20.2212 11.5731L21.0932 10.5896L19.9709 9.59443ZM20.1182 8.14009C20.3872 8.60605 20.3279 9.19187 19.9709 9.59443L21.0932 10.5896C21.8786 9.704 22.0091 8.41519 21.4172 7.39009L20.1182 8.14009ZM19.4018 6.89929L20.1182 8.14009L21.4172 7.39009L20.7009 6.14929L19.4018 6.89929ZM18.0687 6.29967C18.5958 6.1918 19.1328 6.43333 19.4018 6.89929L20.7009 6.14929C20.109 5.12419 18.9276 4.59281 17.768 4.83012L18.0687 6.29967ZM16.7815 6.56307L18.0687 6.29967L17.768 4.83012L16.4808 5.09352L16.7815 6.56307ZM14.9687 5.87738C15.2633 6.02051 15.5461 6.18433 15.8152 6.36699L16.6576 5.12588C16.3293 4.90304 15.9841 4.70304 15.6243 4.5282L14.9687 5.87738ZM13.9022 3.89414L14.3173 5.13927L15.7403 4.66493L15.3253 3.4198L13.9022 3.89414ZM12.7164 3.03943C13.2544 3.03943 13.7321 3.38372 13.9022 3.89414L15.3253 3.4198C14.951 2.29686 13.9001 1.53943 12.7164 1.53943V3.03943ZM11.2836 3.03943H12.7164V1.53943H11.2836V3.03943ZM15.6243 4.5282C15.6697 4.55026 15.717 4.59503 15.7403 4.66493L14.3173 5.13927C14.4289 5.47413 14.6721 5.73327 14.9687 5.87738L15.6243 4.5282ZM16.4808 5.09352C16.5531 5.07873 16.6157 5.09742 16.6576 5.12588L15.8152 6.36699C16.0886 6.55254 16.4352 6.63394 16.7815 6.56307L16.4808 5.09352ZM20.2816 11.4041C20.2852 11.4547 20.27 11.518 20.2212 11.5731L19.0989 10.5779C18.8649 10.8417 18.762 11.1816 18.7853 11.5104L20.2816 11.4041ZM16.6576 18.874C16.6157 18.9025 16.5531 18.9212 16.4808 18.9064L16.7815 17.4369C16.4352 17.366 16.0886 17.4474 15.8152 17.6329L16.6576 18.874ZM20.2212 12.4268C20.27 12.4819 20.2852 12.5453 20.2816 12.5958L18.7853 12.4895C18.762 12.8184 18.8649 13.1582 19.0989 13.422L20.2212 12.4268ZM8.37576 19.4717C8.33037 19.4497 8.28301 19.4049 8.25971 19.335L9.68273 18.8607C9.57111 18.5258 9.32789 18.2667 9.0313 18.1226L8.37576 19.4717ZM7.51919 18.9064C7.44691 18.9212 7.38431 18.9025 7.34237 18.874L8.18479 17.6329C7.91141 17.4474 7.56479 17.366 7.21847 17.4368L7.51919 18.9064ZM15.7403 19.335C15.717 19.4049 15.6697 19.4497 15.6243 19.4717L14.9687 18.1226C14.6721 18.2667 14.4289 18.5258 14.3173 18.8607L15.7403 19.335ZM3.71844 12.5957C3.71486 12.5452 3.73004 12.4818 3.77885 12.4267L4.90116 13.422C5.13508 13.1582 5.23802 12.8183 5.21468 12.4895L3.71844 12.5957ZM3.77885 11.5732C3.73004 11.5181 3.71486 11.4548 3.71844 11.4042L5.21468 11.5105C5.23802 11.1816 5.13508 10.8418 4.90116 10.578L3.77885 11.5732ZM7.34238 5.1259C7.38432 5.09744 7.44692 5.07875 7.5192 5.09354L7.21848 6.56309C7.5648 6.63396 7.91142 6.55256 8.1848 6.367L7.34238 5.1259ZM8.25971 4.66493C8.28301 4.59503 8.33037 4.55026 8.37576 4.5282L9.0313 5.87738C9.32789 5.73327 9.57112 5.47413 9.68273 5.13927L8.25971 4.66493Z" fill="black"/>
<path fill-rule="evenodd" clip-rule="evenodd" d="M12 15C13.6569 15 15 13.6569 15 12C15 10.3431 13.6569 9 12 9C10.3431 9 9 10.3431 9 12C9 13.6569 10.3431 15 12 15Z" stroke="black" stroke-width="1.5"/>
</svg>
